<svg xmlns="http://www.w3.org/2000/svg" viewBox="0 0 900 620" role="img" aria-labelledby="title desc"><title id="title">Circuit Zandvoort outline</title><desc id="desc">Minimal editorial outline of the 4.259 kilometre Circuit Zandvoort, home of the Dutch Grand Prix, with fourteen corner markers.</desc><path d="M695 560 C718 523 722 482 720 438 C718 394 711 350 699 314 C687 279 676 243 684 208 C692 173 714 142 708 113 C703 83 680 65 650 68 C621 71 602 92 603 119 C604 145 621 163 610 183 C598 204 569 207 545 195 C522 184 505 165 479 156 C448 145 417 151 391 170 C365 189 353 217 337 238 C321 259 298 272 271 270 C242 268 219 249 203 229 C185 207 160 194 137 201 C111 209 98 235 105 259 C112 284 135 300 161 305 C187 310 207 300 225 312 C245 325 245 352 230 369 C212 389 181 396 157 410 C133 425 119 450 126 475 C134 505 163 519 193 516 C225 513 248 493 276 487 C306 480 332 490 357 507 C384 525 410 546 438 562 C468 580 504 584 529 566 C551 550 551 524 533 506 C514 487 485 479 474 457 C462 434 471 410 492 397 C514 383 543 388 569 398 C597 409 620 429 647 434 C671 439 692 427 704 409 C718 388 717 364 706 345" fill="none" stroke="#c9ee6b" stroke-width="13" stroke-linecap="round" stroke-linejoin="round"/><g fill="#c9ee6b"><circle cx="695" cy="560" r="7"/><circle cx="684" cy="208" r="7"/><circle cx="603" cy="119" r="7"/><circle cx="610" cy="183" r="7"/><circle cx="545" cy="195" r="7"/><circle cx="479" cy="156" r="7"/><circle cx="337" cy="238" r="7"/><circle cx="203" cy="229" r="7"/><circle cx="105" cy="259" r="7"/><circle cx="230" cy="369" r="7"/><circle cx="157" cy="410" r="7"/><circle cx="126" cy="475" r="7"/><circle cx="276" cy="487" r="7"/><circle cx="474" cy="457" r="7"/></g></svg>